<mxfile host="app.diagrams.net" modified="2023-03-21T23:34:18.386Z" agent="5.0 (Windows NT 10.0; Win64; x64) AppleWebKit/537.36 (KHTML, like Gecko) Chrome/111.0.0.0 Safari/537.36" etag="TUG6hJVaCgtJGoeRUHox" version="21.0.10" type="github">
  <diagram name="Página-1" id="Su_opLpWyxQFpTpVomn2">
    <mxGraphModel dx="1434" dy="796" grid="1" gridSize="10" guides="1" tooltips="1" connect="1" arrows="1" fold="1" page="1" pageScale="1" pageWidth="827" pageHeight="1169" math="0" shadow="0">
      <root>
        <mxCell id="0" />
        <mxCell id="1" parent="0" />
        <mxCell id="4CbIW5y6H3g54C7-UNfQ-35" style="rounded=0;orthogonalLoop=1;jettySize=auto;html=1;endArrow=none;endFill=0;" edge="1" parent="1" source="4CbIW5y6H3g54C7-UNfQ-1" target="4CbIW5y6H3g54C7-UNfQ-13">
          <mxGeometry relative="1" as="geometry" />
        </mxCell>
        <mxCell id="4CbIW5y6H3g54C7-UNfQ-36" style="rounded=0;orthogonalLoop=1;jettySize=auto;html=1;endArrow=none;endFill=0;" edge="1" parent="1" source="4CbIW5y6H3g54C7-UNfQ-1" target="4CbIW5y6H3g54C7-UNfQ-16">
          <mxGeometry relative="1" as="geometry">
            <mxPoint x="180" y="360" as="targetPoint" />
          </mxGeometry>
        </mxCell>
        <mxCell id="4CbIW5y6H3g54C7-UNfQ-38" style="rounded=0;orthogonalLoop=1;jettySize=auto;html=1;endArrow=none;endFill=0;" edge="1" parent="1" source="4CbIW5y6H3g54C7-UNfQ-1" target="4CbIW5y6H3g54C7-UNfQ-30">
          <mxGeometry relative="1" as="geometry" />
        </mxCell>
        <mxCell id="4CbIW5y6H3g54C7-UNfQ-40" value="" style="rounded=0;orthogonalLoop=1;jettySize=auto;html=1;entryX=0;entryY=0.5;entryDx=0;entryDy=0;endArrow=none;endFill=0;" edge="1" parent="1" source="4CbIW5y6H3g54C7-UNfQ-1" target="4CbIW5y6H3g54C7-UNfQ-29">
          <mxGeometry relative="1" as="geometry" />
        </mxCell>
        <mxCell id="4CbIW5y6H3g54C7-UNfQ-46" style="rounded=0;orthogonalLoop=1;jettySize=auto;html=1;endArrow=none;endFill=0;" edge="1" parent="1" source="4CbIW5y6H3g54C7-UNfQ-1" target="4CbIW5y6H3g54C7-UNfQ-21">
          <mxGeometry relative="1" as="geometry" />
        </mxCell>
        <mxCell id="4CbIW5y6H3g54C7-UNfQ-47" style="rounded=0;orthogonalLoop=1;jettySize=auto;html=1;entryX=0.5;entryY=0;entryDx=0;entryDy=0;endArrow=none;endFill=0;" edge="1" parent="1" source="4CbIW5y6H3g54C7-UNfQ-1" target="4CbIW5y6H3g54C7-UNfQ-26">
          <mxGeometry relative="1" as="geometry" />
        </mxCell>
        <mxCell id="4CbIW5y6H3g54C7-UNfQ-48" value="" style="rounded=0;orthogonalLoop=1;jettySize=auto;html=1;endArrow=none;endFill=0;" edge="1" parent="1" source="4CbIW5y6H3g54C7-UNfQ-1" target="4CbIW5y6H3g54C7-UNfQ-24">
          <mxGeometry relative="1" as="geometry" />
        </mxCell>
        <mxCell id="4CbIW5y6H3g54C7-UNfQ-49" value="" style="rounded=0;orthogonalLoop=1;jettySize=auto;html=1;endArrow=none;endFill=0;" edge="1" parent="1" source="4CbIW5y6H3g54C7-UNfQ-1" target="4CbIW5y6H3g54C7-UNfQ-20">
          <mxGeometry relative="1" as="geometry" />
        </mxCell>
        <mxCell id="4CbIW5y6H3g54C7-UNfQ-1" value="Cliente" style="shape=umlActor;html=1;verticalLabelPosition=bottom;verticalAlign=top;align=center;" vertex="1" parent="1">
          <mxGeometry x="40" y="320" width="40" height="120" as="geometry" />
        </mxCell>
        <mxCell id="4CbIW5y6H3g54C7-UNfQ-41" style="rounded=0;orthogonalLoop=1;jettySize=auto;html=1;entryX=1.008;entryY=0.657;entryDx=0;entryDy=0;entryPerimeter=0;endArrow=none;endFill=0;" edge="1" parent="1" source="4CbIW5y6H3g54C7-UNfQ-2" target="4CbIW5y6H3g54C7-UNfQ-13">
          <mxGeometry relative="1" as="geometry" />
        </mxCell>
        <mxCell id="4CbIW5y6H3g54C7-UNfQ-42" style="rounded=0;orthogonalLoop=1;jettySize=auto;html=1;entryX=1;entryY=0.5;entryDx=0;entryDy=0;endArrow=none;endFill=0;" edge="1" parent="1" source="4CbIW5y6H3g54C7-UNfQ-2" target="4CbIW5y6H3g54C7-UNfQ-16">
          <mxGeometry relative="1" as="geometry" />
        </mxCell>
        <mxCell id="4CbIW5y6H3g54C7-UNfQ-43" style="rounded=0;orthogonalLoop=1;jettySize=auto;html=1;entryX=0.992;entryY=0.414;entryDx=0;entryDy=0;entryPerimeter=0;endArrow=none;endFill=0;" edge="1" parent="1" source="4CbIW5y6H3g54C7-UNfQ-2" target="4CbIW5y6H3g54C7-UNfQ-30">
          <mxGeometry relative="1" as="geometry" />
        </mxCell>
        <mxCell id="4CbIW5y6H3g54C7-UNfQ-44" style="rounded=0;orthogonalLoop=1;jettySize=auto;html=1;entryX=1;entryY=0.5;entryDx=0;entryDy=0;endArrow=none;endFill=0;" edge="1" parent="1" source="4CbIW5y6H3g54C7-UNfQ-2" target="4CbIW5y6H3g54C7-UNfQ-29">
          <mxGeometry relative="1" as="geometry" />
        </mxCell>
        <mxCell id="4CbIW5y6H3g54C7-UNfQ-2" value="Funcionário" style="shape=umlActor;html=1;verticalLabelPosition=bottom;verticalAlign=top;align=center;" vertex="1" parent="1">
          <mxGeometry x="596" y="100" width="44" height="120" as="geometry" />
        </mxCell>
        <mxCell id="4CbIW5y6H3g54C7-UNfQ-5" value="Caixa eletrônico" style="shape=umlActor;html=1;verticalLabelPosition=bottom;verticalAlign=top;align=center;" vertex="1" parent="1">
          <mxGeometry x="640" y="640" width="40" height="120" as="geometry" />
        </mxCell>
        <mxCell id="4CbIW5y6H3g54C7-UNfQ-55" value="include" style="rounded=0;orthogonalLoop=1;jettySize=auto;html=1;exitX=0.5;exitY=1;exitDx=0;exitDy=0;dashed=1;" edge="1" parent="1" source="4CbIW5y6H3g54C7-UNfQ-13" target="4CbIW5y6H3g54C7-UNfQ-30">
          <mxGeometry relative="1" as="geometry" />
        </mxCell>
        <mxCell id="4CbIW5y6H3g54C7-UNfQ-13" value="Abrir contas" style="ellipse;whiteSpace=wrap;html=1;" vertex="1" parent="1">
          <mxGeometry x="208" y="70" width="130" height="70" as="geometry" />
        </mxCell>
        <mxCell id="4CbIW5y6H3g54C7-UNfQ-16" value="Encerrar contas" style="ellipse;whiteSpace=wrap;html=1;" vertex="1" parent="1">
          <mxGeometry x="320" y="250" width="130" height="70" as="geometry" />
        </mxCell>
        <mxCell id="4CbIW5y6H3g54C7-UNfQ-52" style="rounded=0;orthogonalLoop=1;jettySize=auto;html=1;endArrow=none;endFill=0;" edge="1" parent="1" source="4CbIW5y6H3g54C7-UNfQ-20" target="4CbIW5y6H3g54C7-UNfQ-5">
          <mxGeometry relative="1" as="geometry" />
        </mxCell>
        <mxCell id="4CbIW5y6H3g54C7-UNfQ-20" value="Depositar valores" style="ellipse;whiteSpace=wrap;html=1;" vertex="1" parent="1">
          <mxGeometry x="344" y="580" width="140" height="70" as="geometry" />
        </mxCell>
        <mxCell id="4CbIW5y6H3g54C7-UNfQ-51" style="rounded=0;orthogonalLoop=1;jettySize=auto;html=1;endArrow=none;endFill=0;" edge="1" parent="1" source="4CbIW5y6H3g54C7-UNfQ-21" target="4CbIW5y6H3g54C7-UNfQ-5">
          <mxGeometry relative="1" as="geometry" />
        </mxCell>
        <mxCell id="4CbIW5y6H3g54C7-UNfQ-21" value="Sacar valores" style="ellipse;whiteSpace=wrap;html=1;" vertex="1" parent="1">
          <mxGeometry x="343" y="480" width="140" height="70" as="geometry" />
        </mxCell>
        <mxCell id="4CbIW5y6H3g54C7-UNfQ-54" style="rounded=0;orthogonalLoop=1;jettySize=auto;html=1;entryX=0.05;entryY=0.925;entryDx=0;entryDy=0;entryPerimeter=0;endArrow=none;endFill=0;" edge="1" parent="1" source="4CbIW5y6H3g54C7-UNfQ-24" target="4CbIW5y6H3g54C7-UNfQ-5">
          <mxGeometry relative="1" as="geometry" />
        </mxCell>
        <mxCell id="4CbIW5y6H3g54C7-UNfQ-24" value="Emitir saldos" style="ellipse;whiteSpace=wrap;html=1;" vertex="1" parent="1">
          <mxGeometry x="90" y="720" width="140" height="70" as="geometry" />
        </mxCell>
        <mxCell id="4CbIW5y6H3g54C7-UNfQ-53" style="rounded=0;orthogonalLoop=1;jettySize=auto;html=1;endArrow=none;endFill=0;" edge="1" parent="1" source="4CbIW5y6H3g54C7-UNfQ-26" target="4CbIW5y6H3g54C7-UNfQ-5">
          <mxGeometry relative="1" as="geometry" />
        </mxCell>
        <mxCell id="4CbIW5y6H3g54C7-UNfQ-26" value="Emitir extratos" style="ellipse;whiteSpace=wrap;html=1;" vertex="1" parent="1">
          <mxGeometry x="208" y="640" width="140" height="70" as="geometry" />
        </mxCell>
        <mxCell id="4CbIW5y6H3g54C7-UNfQ-29" value="Alterar dados do cliente" style="ellipse;whiteSpace=wrap;html=1;" vertex="1" parent="1">
          <mxGeometry x="354" y="350" width="130" height="70" as="geometry" />
        </mxCell>
        <mxCell id="4CbIW5y6H3g54C7-UNfQ-30" value="Registrar cliente" style="ellipse;whiteSpace=wrap;html=1;" vertex="1" parent="1">
          <mxGeometry x="294" y="170" width="120" height="70" as="geometry" />
        </mxCell>
        <mxCell id="4CbIW5y6H3g54C7-UNfQ-56" value="extend" style="rounded=0;orthogonalLoop=1;jettySize=auto;html=1;exitX=0.5;exitY=0;exitDx=0;exitDy=0;entryX=0.569;entryY=1;entryDx=0;entryDy=0;entryPerimeter=0;dashed=1;" edge="1" parent="1" source="4CbIW5y6H3g54C7-UNfQ-29" target="4CbIW5y6H3g54C7-UNfQ-16">
          <mxGeometry relative="1" as="geometry" />
        </mxCell>
      </root>
    </mxGraphModel>
  </diagram>
</mxfile>
